# xmcd
#
# Track frame offsets:
#	150
#	15904
#	27361
#	35284
#	44754
#	55377
#	69918
#	80916
#	90452
#	101168
#	115211
#	128068
#
# Disc length: 1792 seconds
#
# Revision: 0
# Processed by: cddbd v1.5.2PL0 Copyright (c) Steve Scherf et al.
# Submitted via: audiograbber 1.83.01
#
DISCID=9a06fe0c
DTITLE=Sildawg and the Redneck Ramblers - Redneck Christmas Collection Disc 2
DYEAR=2011
DGENRE=Country
TTITLE0=Grandma Got Runover by A Reindeer
TTITLE1=Hark the Harley Angels Sing
TTITLE2=Here Comes Bubba Claus
TTITLE3=Leroy The Snowmanck
TTITLE4=Rudolph The Redneck Reindeer
TTITLE5=Santa's Boot Scootin' Boogie
TTITLE6=The lights on the trailer
TTITLE7=Up On The Trailertop
TTITLE8=We Wish You A Bubba Christmas
TTITLE9=White Trash Christmas
TTITLE10=All I Want for Christmas is a Billy Bass
TTITLE11=Hey Ya'll Watch This
EXTD=
EXTT0=
EXTT1=
EXTT2=
EXTT3=
EXTT4=
EXTT5=
EXTT6=
EXTT7=
EXTT8=
EXTT9=
EXTT10=
EXTT11=
PLAYORDER=
